<?xml version="1.0" encoding="utf-8" ?>
<svg xmlns="http://www.w3.org/2000/svg" xmlns:xlink="http://www.w3.org/1999/xlink" width="40" height="40" viewBox="0 0 40 40">
	<defs>
		<clipPath id="clipPath1534585644">
			<path transform="matrix(1 0 0 1 0 0)" d="M0 0L40 0L40 40L0 40L0 0Z" fill-rule="nonzero"/>
		</clipPath>
	</defs>
	<g clip-path="url(#clipPath1534585644)">
		<path transform="matrix(1 0 0 1 0 0)" d="M20 0C14.4772 0 9.76311 1.95262 5.85786 5.85786C1.95262 9.76311 0 14.4772 0 20C0 25.5228 1.95262 30.2369 5.85786 34.1421C9.76311 38.0474 14.4772 40 20 40C25.5228 40 30.2369 38.0474 34.1421 34.1421C38.0474 30.2369 40 25.5228 40 20C40 14.4772 38.0474 9.76311 34.1421 5.85786C30.2369 1.95262 25.5228 0 20 0ZM30.028 17.976C29.6383 18.6008 29.1493 19.1346 28.5609 19.5774C27.9726 20.0203 27.3243 20.3424 26.616 20.544C26.4616 20.5944 26.3042 20.633 26.144 20.6598C25.9838 20.6866 25.8224 20.7013 25.66 20.704C25.3476 20.7022 25.0813 20.5905 24.861 20.3689C24.6408 20.1474 24.5306 19.8804 24.5306 19.568C24.5306 19.2556 24.6408 18.9886 24.861 18.7671C25.0813 18.5455 25.3476 18.4338 25.66 18.432C25.7032 18.433 25.7461 18.4294 25.7885 18.4213C25.831 18.4132 25.8722 18.4008 25.912 18.384C26.3669 18.2709 26.7833 18.0759 27.1614 17.7989C27.5395 17.5219 27.8511 17.1836 28.096 16.784C28.2385 16.5511 28.3464 16.3031 28.4198 16.0401C28.4932 15.7771 28.5293 15.5091 28.528 15.236C28.528 13.44 26.868 11.96 24.844 11.96C24.4938 11.9607 24.1493 12.0055 23.8106 12.0942C23.4718 12.183 23.1496 12.3129 22.844 12.484C22.3311 12.7541 21.9218 13.1354 21.6161 13.6279C21.3104 14.1205 21.1504 14.6565 21.136 15.236L21.136 24.776C21.1259 25.76 20.8666 26.6732 20.358 27.5156C19.8494 28.358 19.1621 29.0128 18.296 29.48C17.8206 29.7473 17.3188 29.9488 16.7905 30.0844C16.2622 30.22 15.7254 30.2852 15.18 30.28C11.884 30.28 9.18 27.8 9.18 24.732C9.18292 24.2508 9.24989 23.7787 9.38093 23.3156C9.51196 22.8526 9.70232 22.4154 9.95199 22.004C10.3417 21.3792 10.8307 20.8454 11.4191 20.4026C12.0074 19.9597 12.6557 19.6376 13.364 19.436C13.5186 19.3864 13.676 19.3481 13.8362 19.3213C13.9964 19.2945 14.1576 19.2794 14.32 19.276C14.635 19.2742 14.9042 19.3843 15.1276 19.6064C15.351 19.8285 15.4627 20.097 15.4627 20.412C15.4627 20.727 15.351 20.9956 15.1276 21.2176C14.9042 21.4397 14.635 21.5499 14.32 21.548C14.2768 21.547 14.2339 21.5506 14.1915 21.5587C14.149 21.5668 14.1078 21.5792 14.068 21.596C13.6171 21.7173 13.2032 21.916 12.8265 22.1919C12.4498 22.4679 12.1356 22.8026 11.884 23.196C11.7415 23.4289 11.6336 23.6769 11.5602 23.9399C11.4868 24.2029 11.4507 24.4709 11.452 24.744C11.452 26.54 13.112 28.02 15.16 28.02C15.5102 28.0193 15.8547 27.9745 16.1935 27.8858C16.5322 27.797 16.8544 27.6671 17.16 27.496C17.6721 27.2254 18.0807 26.8438 18.3856 26.3513C18.6906 25.8589 18.85 25.3231 18.864 24.744L18.864 15.248C18.8751 14.2633 19.1352 13.3494 19.6444 12.5065C20.1536 11.6635 20.8415 11.008 21.708 10.54C22.1748 10.2603 22.6708 10.0491 23.196 9.90643C23.7212 9.76376 24.2558 9.69496 24.8 9.70004C28.096 9.70004 30.8 12.18 30.8 15.248C30.7971 15.7293 30.7301 16.2014 30.5991 16.6644C30.468 17.1275 30.2777 17.5646 30.028 17.976Z" fill-rule="nonzero" fill="rgb(0, 178, 64)"/>
	</g>
</svg>
