<?xml version="1.0" encoding="utf-8" ?>
<svg xmlns="http://www.w3.org/2000/svg" xmlns:xlink="http://www.w3.org/1999/xlink" width="43.6364" height="40" viewBox="0 0 43.6364 40">
	<defs>
		<clipPath id="clipPath1440649572">
			<path transform="matrix(1 0 0 1 1.90735e-06 0)" d="M0 0L43.6364 0L43.6364 40L0 40L0 0Z" fill-rule="nonzero"/>
		</clipPath>
	</defs>
	<g clip-path="url(#clipPath1440649572)">
		<defs>
			<linearGradient id="linearGradient0496138087" gradientTransform="matrix(0 34.9459 -34.9459 0 35.6752 0)" gradientUnits="userSpaceOnUse" x1="0" y1="0.5" x2="1" y2="0.5">
				<stop offset="0" stop-color="rgb(22, 119, 255)"/>
				<stop offset="0.403128" stop-color="rgb(22, 119, 255)"/>
				<stop offset="0.77166599" stop-color="rgb(0, 91, 248)"/>
				<stop offset="1" stop-color="rgb(44, 127, 253)"/>
			</linearGradient>
		</defs>
		<path transform="matrix(1 0 0 1 4.45624 1.61577)" d="M13.6311 2.60711L13.6311 5.72503L3.2304 5.72503C2.13993 5.72503 1.63573 6.46605 1.63573 8.17863L1.63573 8.23314C1.63573 8.4376 1.63573 8.53983 1.68778 8.61149C1.7046 8.63463 1.72496 8.65498 1.74811 8.6718C1.81976 8.72387 1.92198 8.72387 2.12644 8.72387L13.6311 8.72387L13.6311 12.5406L6.27029 12.5406C5.04438 12.5406 4.90718 13.2682 4.90718 14.7215L4.90718 15.0487C4.90718 15.2531 4.90718 15.3553 4.95924 15.427C4.97605 15.4502 4.99642 15.4705 5.01956 15.4873C5.09122 15.5394 5.19345 15.5394 5.39789 15.5394L20.9918 15.5394C20.9918 19.6288 17.1752 27.2621 11.7227 30.5335C7.38685 33.135 1.90835 32.351 0 31.0788C2.45358 34.0777 13.0858 37.8942 20.1739 31.3513C26.843 25.1953 28.4441 18.7979 28.6101 13.5215C28.6227 13.1219 28.6289 12.9221 28.5254 12.7737C28.4925 12.7268 28.4501 12.683 28.4043 12.6488C28.2592 12.5406 28.0541 12.5406 27.6438 12.5406L19.9014 12.5406L19.9014 8.72387L30.8672 8.72387C31.8967 8.72387 31.8967 6.80363 31.8967 5.72503L19.9014 5.72503L19.9014 1.09049C19.9014 0 19.9014 0 17.1752 0C14.3399 0 13.6311 1.09049 13.6311 2.60711Z" fill-rule="nonzero" fill="url(#linearGradient0496138087)"/>
		<defs>
			<linearGradient id="linearGradient2817711209" gradientTransform="matrix(0 17.32 -17.32 0 28.2255 0)" gradientUnits="userSpaceOnUse" x1="0" y1="0.5" x2="1" y2="0.5">
				<stop offset="0.57428402" stop-color="rgb(21, 119, 255)"/>
				<stop offset="1" stop-color="rgb(133, 184, 255)"/>
			</linearGradient>
		</defs>
		<path transform="matrix(1 0 0 1 1.90735e-06 21.0542)" d="M21.084 14.2691C18.2916 15.8624 15.5441 17.32 10.1216 17.32C3.33662 17.32 0 12.928 0 8.40436C1.9946e-05 3.90982 3.80296 0 10.4505 0C16.5892 0 22.2847 1.32727 30.3282 11.5102C33.4116 15.4136 37.0004 17.0862 39.1344 17.32C37.8091 17.32 33.908 16.6904 28.6109 12.7891C21.7867 7.76327 14.9571 3.90982 10.1216 3.90982C5.24518 3.90982 2.88669 6.26564 2.88669 8.40436C2.88669 10.3058 3.89285 11.2331 4.45076 11.6427C4.48251 11.6782 4.51471 11.7133 4.54736 11.748C6.67058 14.1678 13.9665 17.0282 20.3844 14.56C20.6293 14.4709 20.8635 14.3738 21.084 14.2691Z" fill-rule="evenodd" fill="url(#linearGradient2817711209)"/>
		<defs>
			<linearGradient id="linearGradient6746125619" gradientTransform="matrix(-17.5347 0 0 -17.5347 39.1344 26.0874)" gradientUnits="userSpaceOnUse" x1="0" y1="0.5" x2="1" y2="0.5">
				<stop offset="0" stop-color="rgb(21, 119, 255)"/>
				<stop offset="1" stop-color="rgb(21, 119, 255)" stop-opacity="0"/>
			</linearGradient>
		</defs>
		<path transform="matrix(1 0 0 1 1.90735e-06 21.0542)" d="M21.084 14.2691C18.2916 15.8624 15.5441 17.32 10.1216 17.32C3.33662 17.32 0 12.928 0 8.40436C1.9946e-05 3.90982 3.80296 0 10.4505 0C16.5892 0 22.2847 1.32727 30.3282 11.5102C33.4116 15.4136 37.0004 17.0862 39.1344 17.32C37.8091 17.32 33.908 16.6904 28.6109 12.7891C21.7867 7.76327 14.9571 3.90982 10.1216 3.90982C5.24518 3.90982 2.88669 6.26564 2.88669 8.40436C2.88669 10.3058 3.89285 11.2331 4.45076 11.6427C4.48251 11.6782 4.51471 11.7133 4.54736 11.748C6.67058 14.1678 13.9665 17.0282 20.3844 14.56C20.6293 14.4709 20.8635 14.3738 21.084 14.2691Z" fill-rule="evenodd" fill="url(#linearGradient6746125619)"/>
		<defs>
			<linearGradient id="linearGradient6315968612" gradientTransform="matrix(20.7485 8.46655 -8.46655 20.7485 8.14218 -8.19209)" gradientUnits="userSpaceOnUse" x1="0" y1="0.5" x2="1" y2="0.5">
				<stop offset="0" stop-color="rgb(29, 123, 255)"/>
				<stop offset="1" stop-color="rgb(134, 185, 255)"/>
			</linearGradient>
		</defs>
		<path transform="matrix(1 0 0 1 18.9789 22.6593)" d="M20.1087 15.7147L20.1562 15.7173C23.0029 15.8573 23.9291 14.0425 24.4425 11.5655C25.0055 8.85036 24.4405 7.87655 23.0029 7.79982C18.8247 7.57691 13.9378 6.57545 10.8051 4.85982C8.32109 3.49964 2.61527 1.06836 0 0C3.39455 1.52782 7.03418 4.442 11.3495 9.90509C14.4327 13.8085 18.0216 15.4811 20.1562 15.7173" fill-rule="evenodd" fill="url(#linearGradient6315968612)"/>
	</g>
</svg>
